<?xml version="1.0" encoding="utf-8"?>
<!-- Generator: Adobe Illustrator 23.0.3, SVG Export Plug-In . SVG Version: 6.00 Build 0)  -->
<svg version="1.1" id="batman" class="clicked" xmlns="http://www.w3.org/2000/svg" xmlns:xlink="http://www.w3.org/1999/xlink" x="0px" y="0px"
	 viewBox="0 0 202.73 202.73" style="enable-background:new 0 0 202.73 202.73;" xml:space="preserve">
<style type="text/css">
	.st0{fill:#5A5B5E;stroke:#000000;stroke-width:5;stroke-miterlimit:10;}
	.st1{fill:#FFF300;stroke:#000000;stroke-width:5;stroke-miterlimit:10;}
	.st2{stroke:#000000;stroke-miterlimit:10;}

	@media screen and (max-width: 200px){
		
	.st0{display: none;}
	}

	.st0:hover{fill:#FFFFFF}
</style>
<g id="Circle">
	<circle class="st0" cx="101.36" cy="101.36" r="98.86"/>
</g>
<g id="Batman">
	<g>
		<path class="st1" d="M2.54,96.04c3.15-14.79,18.32-27.07,52.59-35.36c29.76-5.52,58.02-6.74,84.03-1.51
			c21.6,3.43,40.95,10.44,55.31,25.39c7.1,8,8.21,17.07,0,27.81c-13.77,13.96-31.78,20.75-51.69,24.34
			c-18.47,2.84-34.43,6.74-69.52,2.56c-18.06-2.29-34.97-7.38-50.78-15.11C6.39,115.26,2.04,105.77,2.54,96.04z"/>
		<path class="st2" d="M66.82,64.7c-6.88,3.53-9.54,8.33-7.96,14.41c1.27,3.14,3.36,6.09,9.07,8.16c5.84,1.44,11.1,1.25,15.52-1.31
			c3.78-2.4,6.41-5.2,6.75-8.77V62.39l6.05,6.15c3.26-0.62,6.36-0.73,9.17,0l6.2-6.2v14.46c0.79,3.61,2.18,6.94,6.3,9.07
			c5.56,2.46,11.27,3.21,17.23,1.11c4.95-2.32,8.44-5.65,8.56-11.28c-0.87-5.73-4.76-9.1-10.18-11.28
			c18.07,2.79,34,7.67,46.04,16.32c5.65,4.44,10.21,9.56,11.28,17.03c0.37,6.51-3.02,11.17-7.66,15.21
			c-6.39,5.86-15.15,10.13-25.39,13.4c4.93-5.28,6.47-10.03,2.92-14c-4.03-2.99-9.38-2.75-15.31-1.11
			c-4.64,1.75-8.19,4.19-11.08,7.05c-4.07-5.87-8.69-7.63-13.5-7.86c-5.04,0.49-8.09,2.47-10.48,4.94
			c-4.34,4.33-7.31,9.21-9.47,14.41c-2.39-6.11-5.85-10.95-9.97-15.01c-4.29-3.73-8.8-4.53-13.4-4.13
			c-4.35,1.24-7.58,3.84-9.87,7.56c-5.55-4.9-11.34-7.53-17.33-8.36c-5.37-0.31-8.57,1.41-10.38,4.43c-1.51,3.94-0.14,8,4.53,12.19
			c-12.86-4.03-22.56-9.67-29.12-16.93c-5.47-6.26-5.17-12.58-2.42-18.94c3.82-6.49,10.59-11.83,20.05-16.12
			C42.85,70.32,53.87,66.89,66.82,64.7z"/>
	</g>
</g>
</svg>
