<?xml version="1.0" encoding="utf-8"?>
<!-- Generator: Adobe Illustrator 23.0.3, SVG Export Plug-In . SVG Version: 6.00 Build 0)  -->
<svg version="1.1" id="Green_Lantern" class="clicked" xmlns="http://www.w3.org/2000/svg" xmlns:xlink="http://www.w3.org/1999/xlink" x="0px"
	 y="0px" viewBox="0 0 207.73 207.73" style="enable-background:new 0 0 207.73 207.73;" xml:space="preserve">
<style type="text/css">
	.st0{fill:#FFFFFF;stroke:#00993F;stroke-width:10;stroke-miterlimit:10;}
	.st1{fill:#00993F;stroke:#00993F;stroke-miterlimit:10;}
	.st2{fill:#FFFFFF;stroke:#00993F;stroke-miterlimit:10;}

	.st1:hover{fill:#ffffff}
</style>
<g>
	<circle class="st0" cx="103.86" cy="103.86" r="98.86"/>
	<g>
		<path class="st1" d="M44.34,31.64h118.99v23.3h-25.09c3.49,2.71,23.9,19.07,25.09,45.52c0.56,12.42-3.35,22.11-5.02,25.81
			c-7.02,15.53-18.99,23.42-23.66,26.16c9.56,0,19.12,0,28.67,0v23.66H44.34v-23.66h28.67c-3.03-2.27-26.54-20.45-26.52-49.19
			c0.01-16.46,7.73-28.76,8.78-30.38c5.99-9.27,13.42-14.58,17.74-17.2c-9.56,0-19.12,0-28.67,0V31.64z"/>
		<circle class="st2" cx="104.68" cy="103" r="33.56"/>
	</g>
</g>
</svg>
