<?xml version="1.0" encoding="utf-8"?>
<!-- Generator: Adobe Illustrator 23.0.3, SVG Export Plug-In . SVG Version: 6.00 Build 0)  -->
<svg version="1.1" id="Nightwing" class="clicked" xmlns="http://www.w3.org/2000/svg" xmlns:xlink="http://www.w3.org/1999/xlink" x="0px" y="0px"
	 viewBox="0 0 207.73 207.73" style="enable-background:new 0 0 207.73 207.73;" xml:space="preserve">
<style type="text/css">
	.st0{fill:#FFFFFF;stroke:#000000;stroke-width:10;stroke-miterlimit:10;}
	.st1{fill:#1D8BC7;}
</style>
<g>
	<circle class="st0" cx="103.86" cy="103.86" r="98.86"/>
	<polygon class="st1" points="41.65,55.86 89.52,100.27 98.56,86.21 84.67,86.38 90.86,78.84 109.61,78.84 120.15,98.26 
		166.02,55.86 188.58,64.62 169.53,92.91 162.17,88.55 167.19,95.42 148.27,121.7 139.57,115.34 145.97,125.46 131.37,143.87 
		121.53,133.58 124.59,156.26 103.86,180.53 83.04,156.22 86.09,133.83 76.38,143.96 61.65,125.34 68.1,115.63 59.56,121.53 
		40.31,95.5 45.58,88.55 38.09,92.7 19.15,64.49 	"/>
</g>
</svg>
