<?xml version="1.0" encoding="utf-8"?>
<!-- Generator: Adobe Illustrator 23.0.3, SVG Export Plug-In . SVG Version: 6.00 Build 0)  -->
<svg version="1.1" id="Robin" xmlns="http://www.w3.org/2000/svg" xmlns:xlink="http://www.w3.org/1999/xlink" x="0px" y="0px"
	 viewBox="0 0 207.73 207.73" style="enable-background:new 0 0 207.73 207.73;" xml:space="preserve">
<style type="text/css">
	.st0{fill:#E6001C;stroke:#000000;stroke-width:10;stroke-miterlimit:10;}
	.st1{stroke:#000000;stroke-miterlimit:10;}
	.st2{fill:#FFF300;}
</style>
<g>
	<circle class="st0" cx="103.86" cy="103.86" r="98.86"/>
	<g>
		<ellipse transform="matrix(0.866 -0.5 0.5 0.866 -33.9175 61.2968)" class="st1" cx="97.42" cy="93.94" rx="94.64" ry="45.12"/>
		<path class="st2" d="M35.11,68.29c4.79-0.99,46.86-9.66,68.63-11.13c3.63-0.25,10.13-0.56,14.33,3.64
			c2.72,2.72,3.97,6.92,3.75,12.59c-1.08,9.72-9.47,15.45-22.72,18.55l7.42-20.87l-37.56,9.74l-36.17,96.92l39.42-12.52l19.48-52.4
			l77.44,69.56L133.89,98.9c16.48-8.13,28.52-17.92,35.24-29.68c5.58-9.51,3.98-17.27-3.25-23.65c-10.76-9.5-29.08-8.35-34.78-7.88
			c-34.7,2.87-75.53,17.98-89.04,23.19C39.75,63.35,37.43,65.82,35.11,68.29z"/>
	</g>
</g>
</svg>
