<?xml version="1.0" encoding="utf-8"?>
<!-- Generator: Adobe Illustrator 23.0.3, SVG Export Plug-In . SVG Version: 6.00 Build 0)  -->
<svg version="1.1" id="Superman" class="clicked" xmlns="http://www.w3.org/2000/svg" xmlns:xlink="http://www.w3.org/1999/xlink" x="0px" y="0px"
	 viewBox="0 0 202.73 202.73" style="enable-background:new 0 0 202.73 202.73;" xml:space="preserve">
<style type="text/css">
	.st0{fill:#21409A;stroke:#000000;stroke-width:5;stroke-miterlimit:10;}
	.st1{fill:#ED1C24;stroke:#000000;stroke-width:5;stroke-miterlimit:10;}
	.st2{fill:#FFF200;stroke:#000000;stroke-width:5;stroke-miterlimit:10;}
</style>
<g>
	<circle class="st0" cx="101.36" cy="101.36" r="98.86"/>
	<g id="Connected">
		<polygon class="st1" points="37.99,55.51 163,55.51 197.54,85.54 101.36,193.66 4.58,85.17 		"/>
		<path class="st2" d="M126.09,66.96c8.22,1.47,15.01,5.1,18.68,13.42l0-13.42L126.09,66.96z"/>
		<path class="st2" d="M163.21,90.56V72.4l16.05,15.2l-19.57,22.38c-7.77-9.82-18.19-13.79-29.7-15.35l-47.44-1.13
			c-11.98-1.31-17.51-5.27-19.15-10.84c1.72-8.39,9.47-13.56,24.07-15.06h16.47c15.85,2.33,25.45,9.83,28.58,22.67L163.21,90.56z"/>
		<path class="st2" d="M33.84,101.82c-1.69-16.97,7.88-28.59,28.72-34.87H43.97l-21.4,20.65L33.84,101.82z"/>
		<path class="st2" d="M46.6,114.64l15.96,18.02c14.71-6.3,27.57-5.16,37.82,6.57h15.3c9.78-0.96,18.28-2.59,21.49-6.95
			c0.41-0.83,1.03-2.44,0.55-4.17c-0.67-2.42-3.07-3.55-4.86-4.37c-6.67-1.8-12.38-1.56-15.49-1.22l-33.6-0.19
			C70.01,122.17,57.82,119.26,46.6,114.64z"/>
		<path id="Conneted" class="st2" d="M79.17,151.99c14.78,2.96,29.22,3.3,43.17,0l-21.59,23.46L79.17,151.99z"/>
	</g>
</g>
</svg>
