<?xml version="1.0" encoding="utf-8"?>
<!-- Generator: Adobe Illustrator 23.0.3, SVG Export Plug-In . SVG Version: 6.00 Build 0)  -->
<svg version="1.1" id="Wonder_Woman" xmlns="http://www.w3.org/2000/svg" xmlns:xlink="http://www.w3.org/1999/xlink" x="0px"
	 y="0px" viewBox="0 0 202.73 202.73" style="enable-background:new 0 0 202.73 202.73;" xml:space="preserve">
<style type="text/css">
	.st0{fill:#E6001C;stroke:#000000;stroke-width:5;stroke-miterlimit:10;}
	.st1{fill:#2499DA;stroke:#000000;stroke-width:5;stroke-miterlimit:10;}
	.st2{fill:#FFF300;stroke:#000000;stroke-width:5;stroke-miterlimit:10;}
	.st3{fill:#FFFFFF;stroke:#000000;stroke-miterlimit:10;}
</style>
<g>
	<circle class="st0" cx="101.36" cy="101.36" r="98.86"/>
	<circle class="st1" cx="102.27" cy="101.36" r="71.32"/>
</g>
<g>
	<g>
		<path class="st2" d="M20.57,90.94h39.95c4.06,0.08,6.62,1.5,7.67,4.29l6.54,13.09c-5.62-2.94-10.7-4.71-14.67-4.06H32.3
			C24.98,103.61,22.24,97.87,20.57,90.94z"/>
		<path class="st2" d="M7.48,76.95H65.7c4.59,0.45,8.12,2.41,10.61,5.87l11.06,20.14l14.9-27.59l14.44,27.59l10.61-18.78
			c2.17-4.01,5.54-6.47,10.61-6.77l57.32-0.23c-2.89,8.4-7.56,11.66-12.86,13.09l-39.49,0.23c-3.36,0.07-6,1.78-7.9,5.19
			l-18.28,36.56l-14.44-28.44l-15.12,28.44L69.09,95.91c-2.23-3.48-5-5.58-8.58-5.64H21.02C13.21,88.2,9.15,83.44,7.48,76.95z"/>
		<path class="st2" d="M129.35,108.1l5.87-12.64c1.67-3.59,4.92-4.99,9.03-5.19h39.27c-3.01,9.84-8.19,13.61-14.67,13.77h-27.31
			C137.13,103.72,133.14,105.41,129.35,108.1z"/>
		<path class="st2" d="M32.53,104.26h30.24c6.88,0.27,11.9,2.79,14.22,8.58l10.61,19.41l14.44-27.98l14.9,27.98l9.7-19.86
			c3.62-4.68,8.24-7.81,14.67-8.12H172c-4.05,9.12-9.04,14.02-15.12,13.99h-14.22c-3.03,0.09-5.39,3.39-7.45,8.12l-18.05,36.34
			l-14.9-30.24l-14.9,30.24l-19.41-39.04c-2.16-5.41-5.71-6.64-9.93-5.87l-13.32-0.23C38.11,116.67,34.25,111.96,32.53,104.26z"/>
	</g>
	<polygon class="st3" points="38.25,40.68 43.15,36.56 43.44,42.96 48.88,46.35 42.88,48.61 41.34,54.83 37.34,49.82 30.94,50.28 
		34.47,44.92 32.06,38.98 	"/>
	<polygon class="st3" points="104.21,12.72 110.54,13.7 105.91,18.13 106.92,24.46 101.28,21.42 95.57,24.34 96.73,18.03 
		92.18,13.51 98.54,12.66 101.43,6.94 	"/>
	<polygon class="st3" points="167.46,40.99 173.75,39.75 170.91,45.5 174.03,51.1 167.69,50.17 163.33,54.87 162.25,48.55 
		156.43,45.86 162.11,42.88 162.87,36.52 	"/>
	<polygon class="st3" points="184.64,106.91 189.94,103.3 189.58,109.7 194.65,113.63 188.45,115.27 186.29,121.3 182.82,115.91 
		176.41,115.72 180.46,110.75 178.67,104.59 	"/>
	<polygon class="st3" points="156.52,159.72 159.2,153.89 162.19,159.56 168.56,160.3 164.1,164.9 165.35,171.19 159.6,168.37 
		154.01,171.5 154.92,165.16 150.2,160.81 	"/>
	<polygon class="st3" points="102.56,179.5 108.34,176.73 107.02,183 111.44,187.65 105.07,188.33 102.01,193.97 99.4,188.12 
		93.09,186.96 97.85,182.66 97,176.3 	"/>
	<polygon class="st3" points="45.61,158.28 51.73,160.2 46.49,163.89 46.56,170.3 41.43,166.46 35.35,168.51 37.42,162.44 
		33.6,157.3 40.01,157.39 43.72,152.16 	"/>
	<polygon class="st3" points="18.05,107.28 24.21,105.51 21.87,111.47 25.46,116.79 19.06,116.4 15.12,121.46 13.5,115.25 
		7.48,113.07 12.88,109.61 13.1,103.21 	"/>
</g>
</svg>
